<mxfile host="app.diagrams.net" modified="2021-03-10T11:15:45.665Z" agent="5.0 (Windows NT 10.0; Win64; x64) AppleWebKit/537.36 (KHTML, like Gecko) Chrome/88.0.4324.190 Safari/537.36" etag="sT1tpnP7--W0va9LXAvb" version="14.4.2" type="github">
  <diagram id="GcFx09Xzgwg2ThN0n5dm" name="第 1 页">
    <mxGraphModel dx="1185" dy="667" grid="1" gridSize="10" guides="1" tooltips="1" connect="1" arrows="1" fold="1" page="1" pageScale="1" pageWidth="827" pageHeight="1169" math="0" shadow="0">
      <root>
        <mxCell id="0" />
        <mxCell id="1" parent="0" />
        <mxCell id="ec0aVvaF9EyfB1ssS7DZ-1" value="" style="rounded=0;whiteSpace=wrap;html=1;strokeWidth=1;fontSize=7;" vertex="1" parent="1">
          <mxGeometry x="280" y="200" width="201" height="280" as="geometry" />
        </mxCell>
        <mxCell id="ec0aVvaF9EyfB1ssS7DZ-2" value="&lt;span style=&quot;color: rgb(0 , 0 , 0) ; font-style: normal ; letter-spacing: normal ; text-align: center ; text-indent: 0px ; text-transform: none ; word-spacing: 0px ; background-color: rgb(248 , 249 , 250) ; display: inline ; float: none ; font-size: 13px&quot;&gt;&lt;font style=&quot;font-size: 13px&quot; face=&quot;Times New Roman&quot;&gt;Conv(kernel_size=1×1)&lt;/font&gt;&lt;/span&gt;" style="rounded=0;whiteSpace=wrap;html=1;strokeWidth=1;fontSize=7;" vertex="1" parent="1">
          <mxGeometry x="310" y="430" width="148" height="28" as="geometry" />
        </mxCell>
        <mxCell id="ec0aVvaF9EyfB1ssS7DZ-3" value="&lt;span style=&quot;color: rgb(0 , 0 , 0) ; font-style: normal ; letter-spacing: normal ; text-align: center ; text-indent: 0px ; text-transform: none ; word-spacing: 0px ; background-color: rgb(248 , 249 , 250) ; display: inline ; float: none&quot;&gt;&lt;font style=&quot;font-size: 14px&quot; face=&quot;Times New Roman&quot;&gt;Concat(axis=1)&lt;/font&gt;&lt;/span&gt;" style="rounded=0;whiteSpace=wrap;html=1;strokeWidth=1;fontSize=7;" vertex="1" parent="1">
          <mxGeometry x="310" y="241" width="148" height="28" as="geometry" />
        </mxCell>
        <mxCell id="ec0aVvaF9EyfB1ssS7DZ-5" value="&lt;font style=&quot;font-size: 21px&quot; face=&quot;Times New Roman&quot;&gt;FPN&lt;/font&gt;" style="text;html=1;resizable=0;autosize=1;align=center;verticalAlign=middle;points=[];fillColor=none;strokeColor=none;rounded=0;fontSize=7;" vertex="1" parent="1">
          <mxGeometry x="286" y="209" width="50" height="20" as="geometry" />
        </mxCell>
        <mxCell id="ec0aVvaF9EyfB1ssS7DZ-8" value="(128, 38, 38)" style="text;html=1;resizable=0;autosize=1;align=center;verticalAlign=middle;points=[];fillColor=none;strokeColor=none;rounded=0;" vertex="1" parent="1">
          <mxGeometry x="387.75" y="280" width="77" height="18" as="geometry" />
        </mxCell>
        <mxCell id="ec0aVvaF9EyfB1ssS7DZ-9" value="(256, 19, 19)" style="text;html=1;resizable=0;autosize=1;align=center;verticalAlign=middle;points=[];fillColor=none;strokeColor=none;rounded=0;" vertex="1" parent="1">
          <mxGeometry x="387.75" y="401" width="77" height="18" as="geometry" />
        </mxCell>
        <mxCell id="ec0aVvaF9EyfB1ssS7DZ-10" value="" style="endArrow=classic;html=1;" edge="1" parent="1">
          <mxGeometry width="50" height="50" relative="1" as="geometry">
            <mxPoint x="228.5" y="254.66" as="sourcePoint" />
            <mxPoint x="308" y="254.66" as="targetPoint" />
          </mxGeometry>
        </mxCell>
        <mxCell id="ec0aVvaF9EyfB1ssS7DZ-11" value="" style="endArrow=classic;html=1;" edge="1" parent="1">
          <mxGeometry width="50" height="50" relative="1" as="geometry">
            <mxPoint x="228.5" y="443.65999999999997" as="sourcePoint" />
            <mxPoint x="308" y="443.65999999999997" as="targetPoint" />
          </mxGeometry>
        </mxCell>
        <mxCell id="ec0aVvaF9EyfB1ssS7DZ-14" value="" style="rounded=0;whiteSpace=wrap;html=1;dashed=1;" vertex="1" parent="1">
          <mxGeometry x="296.25" y="310" width="168.5" height="80" as="geometry" />
        </mxCell>
        <mxCell id="ec0aVvaF9EyfB1ssS7DZ-13" value="&lt;font style=&quot;font-size: 12px&quot;&gt;Upsample(scale_factor=2)&lt;/font&gt;" style="rounded=0;whiteSpace=wrap;html=1;strokeWidth=1;fontSize=7;" vertex="1" parent="1">
          <mxGeometry x="308" y="317" width="150" height="22" as="geometry" />
        </mxCell>
        <mxCell id="ec0aVvaF9EyfB1ssS7DZ-12" value="&lt;span style=&quot;font-family: &amp;#34;times new roman&amp;#34;&quot;&gt;&lt;font style=&quot;font-size: 12px&quot;&gt;Conv(kernel_size=1×1)&lt;/font&gt;&lt;/span&gt;" style="rounded=0;whiteSpace=wrap;html=1;strokeWidth=1;fontSize=7;" vertex="1" parent="1">
          <mxGeometry x="308" y="360" width="150" height="22" as="geometry" />
        </mxCell>
        <mxCell id="ec0aVvaF9EyfB1ssS7DZ-7" value="" style="endArrow=classic;html=1;" edge="1" parent="1">
          <mxGeometry width="50" height="50" relative="1" as="geometry">
            <mxPoint x="382.76" y="360" as="sourcePoint" />
            <mxPoint x="382.76" y="340" as="targetPoint" />
          </mxGeometry>
        </mxCell>
        <mxCell id="ec0aVvaF9EyfB1ssS7DZ-15" value="" style="endArrow=classic;html=1;" edge="1" parent="1">
          <mxGeometry width="50" height="50" relative="1" as="geometry">
            <mxPoint x="383.8" y="430" as="sourcePoint" />
            <mxPoint x="384" y="390" as="targetPoint" />
          </mxGeometry>
        </mxCell>
        <mxCell id="ec0aVvaF9EyfB1ssS7DZ-16" value="" style="endArrow=classic;html=1;" edge="1" parent="1">
          <mxGeometry width="50" height="50" relative="1" as="geometry">
            <mxPoint x="382.79999999999995" y="309" as="sourcePoint" />
            <mxPoint x="383" y="269" as="targetPoint" />
          </mxGeometry>
        </mxCell>
        <mxCell id="ec0aVvaF9EyfB1ssS7DZ-17" value="&lt;span style=&quot;color: rgb(0 , 0 , 0) ; font-style: normal ; letter-spacing: normal ; text-align: center ; text-indent: 0px ; text-transform: none ; word-spacing: 0px ; background-color: rgb(248 , 249 , 250) ; display: inline ; float: none ; font-size: 13px&quot;&gt;&lt;font style=&quot;font-size: 13px&quot; face=&quot;Times New Roman&quot;&gt;x1(512,19,19)&lt;/font&gt;&lt;/span&gt;" style="rounded=0;whiteSpace=wrap;html=1;strokeWidth=1;fontSize=7;" vertex="1" parent="1">
          <mxGeometry x="140" y="430" width="100" height="28" as="geometry" />
        </mxCell>
        <mxCell id="ec0aVvaF9EyfB1ssS7DZ-18" value="&lt;span style=&quot;color: rgb(0 , 0 , 0) ; font-style: normal ; letter-spacing: normal ; text-align: center ; text-indent: 0px ; text-transform: none ; word-spacing: 0px ; background-color: rgb(248 , 249 , 250) ; display: inline ; float: none ; font-size: 13px&quot;&gt;&lt;font style=&quot;font-size: 13px&quot; face=&quot;Times New Roman&quot;&gt;x2(256,38,38)&lt;/font&gt;&lt;/span&gt;" style="rounded=0;whiteSpace=wrap;html=1;strokeWidth=1;fontSize=7;" vertex="1" parent="1">
          <mxGeometry x="140" y="241" width="100" height="28" as="geometry" />
        </mxCell>
        <mxCell id="ec0aVvaF9EyfB1ssS7DZ-19" value="" style="endArrow=classic;html=1;" edge="1" parent="1">
          <mxGeometry width="50" height="50" relative="1" as="geometry">
            <mxPoint x="458" y="254.65999999999997" as="sourcePoint" />
            <mxPoint x="520" y="255" as="targetPoint" />
          </mxGeometry>
        </mxCell>
        <mxCell id="ec0aVvaF9EyfB1ssS7DZ-20" value="" style="endArrow=classic;html=1;" edge="1" parent="1">
          <mxGeometry width="50" height="50" relative="1" as="geometry">
            <mxPoint x="458" y="443.65999999999997" as="sourcePoint" />
            <mxPoint x="520" y="444" as="targetPoint" />
          </mxGeometry>
        </mxCell>
        <mxCell id="ec0aVvaF9EyfB1ssS7DZ-21" value="&lt;span style=&quot;color: rgb(0 , 0 , 0) ; font-style: normal ; letter-spacing: normal ; text-align: center ; text-indent: 0px ; text-transform: none ; word-spacing: 0px ; background-color: rgb(248 , 249 , 250) ; display: inline ; float: none ; font-size: 13px&quot;&gt;&lt;font style=&quot;font-size: 13px&quot; face=&quot;Times New Roman&quot;&gt;P1(256,19,19)&lt;/font&gt;&lt;/span&gt;" style="rounded=0;whiteSpace=wrap;html=1;strokeWidth=1;fontSize=7;" vertex="1" parent="1">
          <mxGeometry x="520" y="430" width="100" height="28" as="geometry" />
        </mxCell>
        <mxCell id="ec0aVvaF9EyfB1ssS7DZ-22" value="&lt;span style=&quot;color: rgb(0 , 0 , 0) ; font-style: normal ; letter-spacing: normal ; text-align: center ; text-indent: 0px ; text-transform: none ; word-spacing: 0px ; background-color: rgb(248 , 249 , 250) ; display: inline ; float: none ; font-size: 13px&quot;&gt;&lt;font style=&quot;font-size: 13px&quot; face=&quot;Times New Roman&quot;&gt;P2(384,38,38)&lt;/font&gt;&lt;/span&gt;" style="rounded=0;whiteSpace=wrap;html=1;strokeWidth=1;fontSize=7;" vertex="1" parent="1">
          <mxGeometry x="520" y="241" width="100" height="28" as="geometry" />
        </mxCell>
      </root>
    </mxGraphModel>
  </diagram>
</mxfile>
